<mxfile modified="2021-09-21T10:16:46.551Z" host="app.diagrams.net" agent="5.0 (Windows NT 10.0; Win64; x64) AppleWebKit/537.36 (KHTML, like Gecko) Chrome/91.0.4472.164 Safari/537.36" etag="1jH5DvUib_KfJkLfPV0v" version="15.2.9" type="github">
  <diagram id="Ht1M8jgEwFfnCIfOTk4-" name="Page-1">
    <mxGraphModel dx="1673" dy="1723" grid="1" gridSize="10" guides="1" tooltips="1" connect="1" arrows="1" fold="1" page="1" pageScale="1" pageWidth="1169" pageHeight="827" math="0" shadow="0">
      <root>
        <mxCell id="0" />
        <mxCell id="1" parent="0" />
        <mxCell id="-bd_MZy73MvSszD-UKa4-16" style="edgeStyle=orthogonalEdgeStyle;rounded=0;orthogonalLoop=1;jettySize=auto;html=1;fontColor=#FFFFFF;strokeWidth=6;" edge="1" parent="1" source="-bd_MZy73MvSszD-UKa4-3" target="-bd_MZy73MvSszD-UKa4-17">
          <mxGeometry relative="1" as="geometry">
            <mxPoint x="1200" y="-575" as="targetPoint" />
          </mxGeometry>
        </mxCell>
        <mxCell id="-bd_MZy73MvSszD-UKa4-3" value="&lt;font style=&quot;font-size: 14px&quot;&gt;Amazon SageMaker&lt;/font&gt;" style="sketch=0;outlineConnect=0;fontColor=#232F3E;gradientColor=none;strokeColor=#ffffff;fillColor=#232F3E;dashed=0;verticalLabelPosition=middle;verticalAlign=bottom;align=center;html=1;whiteSpace=wrap;fontSize=10;fontStyle=1;spacing=3;shape=mxgraph.aws4.productIcon;prIcon=mxgraph.aws4.sagemaker;" vertex="1" parent="1">
          <mxGeometry x="840" y="-700" width="230" height="250" as="geometry" />
        </mxCell>
        <mxCell id="-bd_MZy73MvSszD-UKa4-12" value="" style="html=1;aspect=fixed;whiteSpace=wrap;fillColor=#e1d5e7;strokeColor=#9673a6;dashed=1;dashPattern=1 1;rounded=1;" vertex="1" parent="1">
          <mxGeometry x="325.5" y="-796.5" width="443" height="443" as="geometry" />
        </mxCell>
        <mxCell id="-bd_MZy73MvSszD-UKa4-6" style="edgeStyle=orthogonalEdgeStyle;rounded=0;orthogonalLoop=1;jettySize=auto;html=1;fontColor=#FFFFFF;strokeWidth=6;" edge="1" parent="1" source="-bd_MZy73MvSszD-UKa4-5" target="-bd_MZy73MvSszD-UKa4-7">
          <mxGeometry relative="1" as="geometry">
            <mxPoint x="470" y="-575" as="targetPoint" />
          </mxGeometry>
        </mxCell>
        <mxCell id="-bd_MZy73MvSszD-UKa4-5" value="&lt;font style=&quot;font-size: 14px&quot;&gt;Amazon Redshift&lt;/font&gt;" style="sketch=0;outlineConnect=0;fontColor=#232F3E;gradientColor=none;strokeColor=#ffffff;fillColor=#232F3E;dashed=0;verticalLabelPosition=middle;verticalAlign=bottom;align=center;html=1;whiteSpace=wrap;fontSize=10;fontStyle=1;spacing=3;shape=mxgraph.aws4.productIcon;prIcon=mxgraph.aws4.redshift;" vertex="1" parent="1">
          <mxGeometry x="30" y="-700" width="230" height="250" as="geometry" />
        </mxCell>
        <mxCell id="-bd_MZy73MvSszD-UKa4-9" style="edgeStyle=orthogonalEdgeStyle;rounded=0;orthogonalLoop=1;jettySize=auto;html=1;fontColor=#FFFFFF;strokeWidth=6;" edge="1" parent="1" source="-bd_MZy73MvSszD-UKa4-7" target="-bd_MZy73MvSszD-UKa4-3">
          <mxGeometry relative="1" as="geometry" />
        </mxCell>
        <mxCell id="-bd_MZy73MvSszD-UKa4-7" value="" style="shape=image;html=1;verticalAlign=top;verticalLabelPosition=bottom;labelBackgroundColor=#ffffff;imageAspect=0;aspect=fixed;image=https://cdn0.iconfinder.com/data/icons/small-n-flat/24/678122-cogs-128.png;fontColor=#FFFFFF;direction=south;" vertex="1" parent="1">
          <mxGeometry x="460" y="-664.5" width="179" height="179" as="geometry" />
        </mxCell>
        <mxCell id="-bd_MZy73MvSszD-UKa4-8" value="&lt;font color=&quot;#000000&quot; size=&quot;1&quot;&gt;&lt;b style=&quot;font-size: 16px&quot;&gt;Transform&lt;/b&gt;&lt;/font&gt;" style="text;html=1;strokeColor=none;fillColor=none;align=center;verticalAlign=middle;whiteSpace=wrap;rounded=0;fontColor=#FFFFFF;" vertex="1" parent="1">
          <mxGeometry x="495" y="-480" width="104" height="40" as="geometry" />
        </mxCell>
        <mxCell id="-bd_MZy73MvSszD-UKa4-10" value="&lt;font color=&quot;#000000&quot; size=&quot;1&quot;&gt;&lt;b style=&quot;font-size: 16px&quot;&gt;Load&lt;/b&gt;&lt;/font&gt;" style="text;html=1;strokeColor=none;fillColor=none;align=center;verticalAlign=middle;whiteSpace=wrap;rounded=0;fontColor=#FFFFFF;" vertex="1" parent="1">
          <mxGeometry x="677" y="-627.5" width="70" height="35" as="geometry" />
        </mxCell>
        <mxCell id="-bd_MZy73MvSszD-UKa4-11" value="&lt;font color=&quot;#000000&quot; size=&quot;1&quot;&gt;&lt;b style=&quot;font-size: 16px&quot;&gt;Extract&lt;/b&gt;&lt;/font&gt;" style="text;html=1;strokeColor=none;fillColor=none;align=center;verticalAlign=middle;whiteSpace=wrap;rounded=0;fontColor=#FFFFFF;" vertex="1" parent="1">
          <mxGeometry x="330" y="-630" width="70" height="40" as="geometry" />
        </mxCell>
        <mxCell id="-bd_MZy73MvSszD-UKa4-29" style="edgeStyle=orthogonalEdgeStyle;rounded=0;orthogonalLoop=1;jettySize=auto;html=1;entryX=0;entryY=0;entryDx=0;entryDy=24.80157518160232;entryPerimeter=0;fontColor=#FFFFFF;strokeWidth=6;" edge="1" parent="1" source="-bd_MZy73MvSszD-UKa4-17" target="-bd_MZy73MvSszD-UKa4-19">
          <mxGeometry relative="1" as="geometry" />
        </mxCell>
        <mxCell id="-bd_MZy73MvSszD-UKa4-17" value="" style="shape=image;html=1;verticalAlign=top;verticalLabelPosition=bottom;labelBackgroundColor=#ffffff;imageAspect=0;aspect=fixed;image=https://cdn4.iconfinder.com/data/icons/logos-and-brands/512/267_Python_logo-128.png;rounded=1;dashed=1;dashPattern=1 1;fontColor=#FFFFFF;" vertex="1" parent="1">
          <mxGeometry x="1240" y="-672.5" width="195" height="195" as="geometry" />
        </mxCell>
        <mxCell id="-bd_MZy73MvSszD-UKa4-18" value="&lt;font color=&quot;#000000&quot; size=&quot;1&quot;&gt;&lt;b style=&quot;font-size: 16px&quot;&gt;Python Data App&lt;/b&gt;&lt;/font&gt;" style="text;html=1;strokeColor=none;fillColor=none;align=center;verticalAlign=middle;whiteSpace=wrap;rounded=0;fontColor=#FFFFFF;" vertex="1" parent="1">
          <mxGeometry x="1290" y="-480" width="120" height="45" as="geometry" />
        </mxCell>
        <mxCell id="-bd_MZy73MvSszD-UKa4-19" value="Product 1" style="verticalLabelPosition=bottom;verticalAlign=top;html=1;shape=mxgraph.infographic.shadedCube;isoAngle=15;fillColor=#10739E;strokeColor=none;fontStyle=1;fontColor=#10739E;fontSize=12;shadow=0;rounded=1;dashed=1;dashPattern=1 1;" vertex="1" parent="1">
          <mxGeometry x="1660" y="-600" width="40" height="80" as="geometry" />
        </mxCell>
        <mxCell id="-bd_MZy73MvSszD-UKa4-20" value="Product 2" style="verticalLabelPosition=bottom;verticalAlign=top;html=1;shape=mxgraph.infographic.shadedCube;isoAngle=15;fillColor=#F2931E;strokeColor=none;fontStyle=1;fontColor=#F2931E;fontSize=12;shadow=0;rounded=1;dashed=1;dashPattern=1 1;" vertex="1" parent="1">
          <mxGeometry x="1720" y="-620" width="40" height="100" as="geometry" />
        </mxCell>
        <mxCell id="-bd_MZy73MvSszD-UKa4-21" value="Product 3" style="verticalLabelPosition=bottom;verticalAlign=top;html=1;shape=mxgraph.infographic.shadedCube;isoAngle=15;fillColor=#AE4132;strokeColor=none;fontStyle=1;fontColor=#AE4132;fontSize=12;shadow=0;rounded=1;dashed=1;dashPattern=1 1;" vertex="1" parent="1">
          <mxGeometry x="1780" y="-610" width="40" height="90" as="geometry" />
        </mxCell>
        <mxCell id="-bd_MZy73MvSszD-UKa4-22" value="Product 4" style="verticalLabelPosition=bottom;verticalAlign=top;html=1;shape=mxgraph.infographic.shadedCube;isoAngle=15;fillColor=#23445D;strokeColor=none;fontStyle=1;fontColor=#23445D;fontSize=12;shadow=0;rounded=1;dashed=1;dashPattern=1 1;" vertex="1" parent="1">
          <mxGeometry x="1840" y="-570" width="40" height="50" as="geometry" />
        </mxCell>
        <mxCell id="-bd_MZy73MvSszD-UKa4-23" value="Product 5" style="verticalLabelPosition=bottom;verticalAlign=top;html=1;shape=mxgraph.infographic.shadedCube;isoAngle=15;fillColor=#12AAB5;strokeColor=none;fontStyle=1;fontColor=#12AAB5;fontSize=12;shadow=0;rounded=1;dashed=1;dashPattern=1 1;" vertex="1" parent="1">
          <mxGeometry x="1900" y="-590" width="40" height="70" as="geometry" />
        </mxCell>
        <mxCell id="-bd_MZy73MvSszD-UKa4-24" value="" style="verticalLabelPosition=top;verticalAlign=bottom;html=1;shape=mxgraph.infographic.shadedCube;isoAngle=15;fillColor=#CCCCCC;strokeColor=none;fontStyle=1;fontColor=#10739E;fontSize=12;shadow=0;align=left;opacity=70;rounded=1;dashed=1;dashPattern=1 1;" vertex="1" parent="1">
          <mxGeometry x="1660" y="-640" width="40" height="60" as="geometry" />
        </mxCell>
        <mxCell id="-bd_MZy73MvSszD-UKa4-25" value="" style="verticalLabelPosition=top;verticalAlign=bottom;html=1;shape=mxgraph.infographic.shadedCube;isoAngle=15;fillColor=#CCCCCC;strokeColor=none;fontStyle=1;fontColor=#F19A19;fontSize=12;shadow=0;align=left;opacity=70;rounded=1;dashed=1;dashPattern=1 1;" vertex="1" parent="1">
          <mxGeometry x="1720" y="-640" width="40" height="40" as="geometry" />
        </mxCell>
        <mxCell id="-bd_MZy73MvSszD-UKa4-26" value="" style="verticalLabelPosition=top;verticalAlign=bottom;html=1;shape=mxgraph.infographic.shadedCube;isoAngle=15;fillColor=#CCCCCC;strokeColor=none;fontStyle=1;fontColor=#D82A23;fontSize=12;shadow=0;align=left;opacity=70;rounded=1;dashed=1;dashPattern=1 1;" vertex="1" parent="1">
          <mxGeometry x="1780" y="-640" width="40" height="50" as="geometry" />
        </mxCell>
        <mxCell id="-bd_MZy73MvSszD-UKa4-27" value="" style="verticalLabelPosition=top;verticalAlign=bottom;html=1;shape=mxgraph.infographic.shadedCube;isoAngle=15;fillColor=#CCCCCC;strokeColor=none;fontStyle=1;fontColor=#4A5768;fontSize=12;shadow=0;align=left;opacity=70;rounded=1;dashed=1;dashPattern=1 1;" vertex="1" parent="1">
          <mxGeometry x="1840" y="-640" width="40" height="90" as="geometry" />
        </mxCell>
        <mxCell id="-bd_MZy73MvSszD-UKa4-28" value="" style="verticalLabelPosition=top;verticalAlign=bottom;html=1;shape=mxgraph.infographic.shadedCube;isoAngle=15;fillColor=#CCCCCC;strokeColor=none;fontStyle=1;fontColor=#15AA96;fontSize=12;shadow=0;align=left;opacity=70;rounded=1;dashed=1;dashPattern=1 1;" vertex="1" parent="1">
          <mxGeometry x="1900" y="-640" width="40" height="70" as="geometry" />
        </mxCell>
        <mxCell id="-bd_MZy73MvSszD-UKa4-48" value="&lt;font color=&quot;#000000&quot; size=&quot;1&quot;&gt;&lt;b style=&quot;font-size: 16px&quot;&gt;Writing Python&lt;/b&gt;&lt;/font&gt;" style="text;html=1;strokeColor=none;fillColor=none;align=center;verticalAlign=middle;whiteSpace=wrap;rounded=0;fontColor=#FFFFFF;" vertex="1" parent="1">
          <mxGeometry x="1120" y="-637.5" width="70" height="35" as="geometry" />
        </mxCell>
        <mxCell id="-bd_MZy73MvSszD-UKa4-49" value="&lt;font color=&quot;#000000&quot; size=&quot;1&quot;&gt;&lt;b style=&quot;font-size: 16px&quot;&gt;Running App for Data Analytics&lt;/b&gt;&lt;/font&gt;" style="text;html=1;strokeColor=none;fillColor=none;align=center;verticalAlign=middle;whiteSpace=wrap;rounded=0;fontColor=#FFFFFF;" vertex="1" parent="1">
          <mxGeometry x="1470" y="-640" width="120" height="35" as="geometry" />
        </mxCell>
        <mxCell id="-bd_MZy73MvSszD-UKa4-50" value="&lt;font style=&quot;font-size: 23px&quot;&gt;ETL Processes&lt;/font&gt;" style="text;html=1;strokeColor=none;fillColor=none;align=center;verticalAlign=middle;whiteSpace=wrap;rounded=0;dashed=1;dashPattern=1 1;fontColor=#FFFFFF;" vertex="1" parent="1">
          <mxGeometry x="460" y="-760" width="170" height="80" as="geometry" />
        </mxCell>
        <mxCell id="-bd_MZy73MvSszD-UKa4-51" value="&lt;font color=&quot;#000000&quot; size=&quot;1&quot;&gt;&lt;b style=&quot;font-size: 16px&quot;&gt;Streamlit Visualisations&lt;/b&gt;&lt;/font&gt;" style="text;html=1;strokeColor=none;fillColor=none;align=center;verticalAlign=middle;whiteSpace=wrap;rounded=0;fontColor=#FFFFFF;" vertex="1" parent="1">
          <mxGeometry x="1753" y="-730" width="120" height="45" as="geometry" />
        </mxCell>
      </root>
    </mxGraphModel>
  </diagram>
</mxfile>
